PathFileType	4	(X/Y/Z)	/home/nbianco/projects/addbio/data/HamnerRunning2013/Processed/subject02//results/MarkerData/run200.trc
DataRate	CameraRate	NumFrames	NumMarkers	Units	OrigDataRate	OrigDataStartFrame	OrigNumFrames
119.99	119.99	10	42	m	119.99	146	292
Frame#	Time	C7			CLAV			LACR			LASI			LCAL			LFAradius			LFAsuperior			LFAulna			LLEL			LMEL			LMT5			LPSI			LTB1			LTB2			LTB3			LTH1			LTH2			LTH3			LTOE			LUA1			LUA2			LUA3			RACR			RASI			RCAL			RFAradius			RFAsuperior			RFAulna			RLEL			RMEL			RMT5			RPSI			RTB1			RTB2			RTB3			RTH1			RTH2			RTH3			RTOE			RUA1			RUA2			RUA3		
		X1	Y1	Z1	X2	Y2	Z2	X3	Y3	Z3	X4	Y4	Z4	X5	Y5	Z5	X6	Y6	Z6	X7	Y7	Z7	X8	Y8	Z8	X9	Y9	Z9	X10	Y10	Z10	X11	Y11	Z11	X12	Y12	Z12	X13	Y13	Z13	X14	Y14	Z14	X15	Y15	Z15	X16	Y16	Z16	X17	Y17	Z17	X18	Y18	Z18	X19	Y19	Z19	X20	Y20	Z20	X21	Y21	Z21	X22	Y22	Z22	X23	Y23	Z23	X24	Y24	Z24	X25	Y25	Z25	X26	Y26	Z26	X27	Y27	Z27	X28	Y28	Z28	X29	Y29	Z29	X30	Y30	Z30	X31	Y31	Z31	X32	Y32	Z32	X33	Y33	Z33	X34	Y34	Z34	X35	Y35	Z35	X36	Y36	Z36	X37	Y37	Z37	X38	Y38	Z38	X39	Y39	Z39	X40	Y40	Z40	X41	Y41	Z41	X42	Y42	Z42

147	1.35	0.851313	1.62304	-0.329461	0.966184	1.53232	-0.31362	0.905055	1.58388	-0.508164	0.916076	1.11748	-0.458618	0.975709	0.0978854	-0.37144	0.89322	1.24289	-0.506197	0.745342	1.29468	-0.603027	0.868219	1.18201	-0.535852	0.657737	1.33451	-0.6161	0.624598	1.33855	-0.535797	1.15214	0.0915623	-0.430138	0.740884	1.15457	-0.36769	1.05059	0.45957	-0.4	1.0345	0.369429	-0.453689	1.06157	0.260024	-0.384408	0.888541	0.901776	-0.510542	0.981763	0.79809	-0.500503	0.947766	0.676309	-0.467005	1.20368	0.149898	-0.347774	0.847585	1.5215	-0.579617	0.830545	1.45175	-0.581087	0.738562	1.47762	-0.554584	0.943654	1.59747	-0.176968	0.924121	1.10832	-0.20098	0.388884	0.313567	-0.280135	1.05601	1.3362	-0.18651	0.961883	1.29186	-0.0418346	1.08579	1.27851	-0.148053	0.867058	1.27646	0.00974818	0.813913	1.26135	-0.0570251	0.432432	0.142375	-0.212602	0.744194	1.15217	-0.283157	0.691102	0.437203	-0.272227	0.62874	0.40623	-0.205043	0.563519	0.329197	-0.272099	0.836507	0.936605	-0.153854	0.861592	0.818971	-0.171811	0.765103	0.726118	-0.191975	0.492953	0.105597	-0.302037	0.932916	1.5039	-0.0929118	0.93823	1.41502	-0.0884702	0.87146	1.41111	-0.0442028
148	1.35833	0.850777	1.61928	-0.331051	0.965713	1.5286	-0.314473	0.905355	1.57992	-0.509235	0.916078	1.11386	-0.45889	0.969709	0.0952175	-0.369342	0.898152	1.2391	-0.506892	0.750542	1.28824	-0.604722	0.874351	1.17731	-0.536211	0.662522	1.32662	-0.619408	0.628143	1.33041	-0.539372	1.14488	0.0852	-0.429974	0.740808	1.14969	-0.367601	1.04877	0.454966	-0.399923	1.03147	0.36483	-0.453327	1.05751	0.255229	-0.38412	0.887461	0.897898	-0.51056	0.980874	0.794865	-0.499804	0.947109	0.67246	-0.466952	1.19849	0.143118	-0.348393	0.849048	1.51648	-0.581018	0.833067	1.44652	-0.582567	0.740361	1.47109	-0.557501	0.942776	1.59402	-0.177811	0.924493	1.1051	-0.202317	0.387764	0.324529	-0.279215	1.05233	1.32877	-0.186811	0.956107	1.28735	-0.042857	1.08025	1.27025	-0.148108	0.86056	1.27412	0.00835811	0.807403	1.26001	-0.0586528	0.426727	0.152678	-0.210661	0.744399	1.14739	-0.283153	0.69651	0.435348	-0.272631	0.632878	0.407412	-0.204969	0.565467	0.332234	-0.271893	0.840441	0.931941	-0.154803	0.867088	0.814765	-0.173432	0.772259	0.720481	-0.192755	0.486484	0.11386	-0.2998	0.930295	1.50056	-0.0937068	0.934546	1.41163	-0.0890754	0.867394	1.40866	-0.0454797
149	1.36667	0.850158	1.61481	-0.33269	0.965127	1.52415	-0.31525	0.905602	1.57517	-0.510262	0.916335	1.10973	-0.459359	0.961677	0.0934732	-0.367215	0.903333	1.23433	-0.507454	0.756175	1.28066	-0.60668	0.880854	1.17171	-0.53656	0.667785	1.31768	-0.622923	0.632541	1.32117	-0.543365	1.13499	0.0773197	-0.430297	0.740845	1.14401	-0.367478	1.04618	0.449098	-0.400008	1.02707	0.359108	-0.453039	1.05217	0.249284	-0.38405	0.886862	0.893363	-0.509783	0.980593	0.79169	-0.497601	0.946526	0.667951	-0.467094	1.19138	0.133315	-0.348859	0.850733	1.51051	-0.582553	0.835879	1.44032	-0.584071	0.742483	1.46344	-0.560604	0.941597	1.58979	-0.178553	0.924934	1.10144	-0.20343	0.387944	0.335436	-0.278129	1.04856	1.31988	-0.186804	0.95	1.28214	-0.0437574	1.0745	1.26074	-0.147613	0.853681	1.27109	0.00701896	0.800607	1.25793	-0.060305	0.422483	0.163116	-0.208536	0.744758	1.14166	-0.283187	0.702707	0.433213	-0.272931	0.637917	0.408462	-0.204772	0.569589	0.334091	-0.271607	0.84436	0.926765	-0.155645	0.872686	0.810066	-0.174978	0.779708	0.714283	-0.193502	0.481323	0.12227	-0.297356	0.927401	1.4964	-0.0944419	0.930389	1.40734	-0.0897903	0.862938	1.40544	-0.0467774
150	1.375	0.849428	1.60964	-0.334367	0.964457	1.51903	-0.315965	0.905822	1.56972	-0.511327	0.916881	1.10483	-0.460446	0.951912	0.092916	-0.364848	0.908747	1.22857	-0.507873	0.762257	1.27201	-0.60914	0.887704	1.16526	-0.536894	0.673514	1.30776	-0.626621	0.637433	1.31091	-0.547616	1.12287	0.0688771	-0.431148	0.741003	1.13767	-0.367405	1.04324	0.442128	-0.399983	1.02181	0.352334	-0.452363	1.04589	0.24237	-0.383447	0.886869	0.887903	-0.508651	0.9809	0.788042	-0.494398	0.946009	0.662671	-0.467268	1.18266	0.120885	-0.349145	0.852635	1.50365	-0.584195	0.838931	1.43321	-0.585604	0.744938	1.45469	-0.563875	0.940156	1.5848	-0.179256	0.925386	1.09716	-0.204069	0.389607	0.346147	-0.276855	1.04465	1.30957	-0.186476	0.943543	1.27601	-0.0444609	1.06846	1.24999	-0.146699	0.846464	1.26739	0.00571655	0.793637	1.25512	-0.0619969	0.419624	0.173434	-0.206265	0.745095	1.13513	-0.283234	0.709663	0.430708	-0.273012	0.643858	0.409238	-0.204426	0.575643	0.334789	-0.271193	0.848171	0.921108	-0.15647	0.878337	0.804863	-0.176311	0.787366	0.707584	-0.19411	0.477296	0.130508	-0.294803	0.924314	1.49141	-0.0951461	0.925825	1.40219	-0.0906224	0.858132	1.40151	-0.0480888
151	1.38333	0.848477	1.60382	-0.336061	0.963758	1.51326	-0.316672	0.906086	1.56362	-0.512548	0.917542	1.099	-0.462447	0.940566	0.0933394	-0.362289	0.914395	1.22184	-0.508187	0.768789	1.2624	-0.612058	0.894866	1.15798	-0.537197	0.679698	1.29694	-0.630465	0.642547	1.29971	-0.551974	1.10914	0.0614423	-0.432119	0.741037	1.13098	-0.367443	1.04051	0.434717	-0.399435	1.01647	0.345076	-0.450866	1.03893	0.235121	-0.381552	0.887483	0.881706	-0.507792	0.981607	0.783379	-0.491426	0.945564	0.656784	-0.467164	1.17246	0.107528	-0.348878	0.85475	1.49598	-0.58594	0.842192	1.42525	-0.587177	0.747691	1.44497	-0.567302	0.938524	1.57908	-0.179976	0.925777	1.09216	-0.204259	0.39283	0.356523	-0.275408	1.04055	1.2979	-0.185848	0.936716	1.26875	-0.0448461	1.06204	1.23801	-0.145465	0.838949	1.26305	0.00441522	0.786572	1.25157	-0.0637512	0.418101	0.183464	-0.203862	0.745089	1.12801	-0.283299	0.717353	0.427761	-0.272805	0.6507	0.409588	-0.203926	0.583096	0.334623	-0.270619	0.851832	0.914951	-0.157445	0.884029	0.799163	-0.177289	0.795179	0.700382	-0.194532	0.474367	0.1384	-0.292175	0.921062	1.48565	-0.0958155	0.920923	1.39626	-0.0915428	0.853037	1.39691	-0.0494034
152	1.39167	0.847154	1.59745	-0.337775	0.963087	1.50678	-0.317444	0.90647	1.55691	-0.514011	0.917926	1.0924	-0.465021	0.927713	0.0942611	-0.359802	0.920284	1.21425	-0.508464	0.775748	1.25197	-0.615124	0.902295	1.1499	-0.537448	0.686324	1.28531	-0.634385	0.647842	1.28763	-0.556358	1.09439	0.0564636	-0.432564	0.74052	1.12429	-0.367588	1.03841	0.427969	-0.398116	1.01185	0.338443	-0.448502	1.03136	0.228643	-0.37821	0.888545	0.875622	-0.507782	0.982429	0.777642	-0.490042	0.945374	0.650897	-0.466688	1.16065	0.095698	-0.347602	0.857047	1.4876	-0.587793	0.845661	1.41652	-0.5888	0.750691	1.43443	-0.570857	0.936729	1.57275	-0.18071	0.926052	1.08643	-0.204291	0.397608	0.366425	-0.27384	1.03623	1.28493	-0.184955	0.929538	1.26033	-0.0448015	1.05525	1.22488	-0.143889	0.831166	1.25808	0.00306803	0.77939	1.24734	-0.0655909	0.418014	0.193131	-0.201312	0.744441	1.12052	-0.28342	0.725767	0.424432	-0.272402	0.658455	0.409423	-0.203331	0.591478	0.333925	-0.269937	0.855335	0.908259	-0.158724	0.889724	0.793046	-0.177853	0.803141	0.692651	-0.194829	0.472689	0.1459	-0.289452	0.91763	1.47917	-0.0964232	0.915743	1.38961	-0.0925174	0.847711	1.39168	-0.0507192
153	1.4	0.845405	1.59076	-0.339561	0.962498	1.49959	-0.318303	0.906978	1.54961	-0.515745	0.917577	1.08569	-0.467103	0.9135	0.0952533	-0.3577	0.92642	1.20588	-0.508774	0.783093	1.24081	-0.618011	0.909943	1.14106	-0.53764	0.693366	1.27292	-0.638294	0.653428	1.27476	-0.560735	1.07905	0.0543889	-0.432111	0.739093	1.11785	-0.367741	1.03693	0.422969	-0.39618	1.00832	0.333666	-0.445763	1.02318	0.224077	-0.374167	0.889719	0.870776	-0.508831	0.983113	0.771584	-0.490852	0.945862	0.645925	-0.466233	1.14719	0.0873264	-0.345296	0.859466	1.47853	-0.589742	0.849344	1.40708	-0.590456	0.753886	1.42319	-0.574498	0.934667	1.56605	-0.181361	0.926178	1.08002	-0.204493	0.403905	0.375711	-0.272219	1.03171	1.27071	-0.183814	0.922074	1.25097	-0.0443172	1.04817	1.21072	-0.141833	0.823131	1.25257	0.00162931	0.77204	1.24253	-0.0675492	0.419634	0.202394	-0.198595	0.743054	1.11286	-0.28363	0.734906	0.42098	-0.272074	0.667157	0.408765	-0.202779	0.600617	0.332901	-0.26929	0.85867	0.901054	-0.160327	0.895332	0.78673	-0.178081	0.811289	0.684442	-0.195146	0.47253	0.153008	-0.286621	0.913995	1.472	-0.096941	0.910306	1.38228	-0.093533	0.842192	1.38583	-0.0520273
154	1.40833	0.843416	1.5841	-0.341496	0.96203	1.49187	-0.319154	0.907489	1.54182	-0.517737	0.916249	1.07968	-0.467609	0.898261	0.0961363	-0.356213	0.932809	1.19674	-0.509125	0.790775	1.22895	-0.620605	0.917782	1.1315	-0.537778	0.700796	1.25985	-0.642109	0.659405	1.26121	-0.565078	1.06329	0.0544185	-0.430993	0.736746	1.11177	-0.367712	1.03563	0.420149	-0.394178	1.00553	0.331375	-0.443462	1.01441	0.221921	-0.37071	0.890556	0.867753	-0.510609	0.983527	0.766521	-0.493284	0.947411	0.642614	-0.466501	1.13234	0.0827805	-0.342596	0.861961	1.46876	-0.591767	0.853213	1.39701	-0.592069	0.757237	1.41128	-0.578199	0.932099	1.55926	-0.181753	0.926134	1.07307	-0.204939	0.411656	0.384234	-0.270603	1.02698	1.25534	-0.182391	0.914388	1.24095	-0.0435711	1.04085	1.19568	-0.139152	0.81486	1.24661	5.16971e-05	0.764553	1.23727	-0.0696873	0.423314	0.211168	-0.19571	0.74112	1.1052	-0.283884	0.744787	0.417803	-0.272134	0.676847	0.407753	-0.202435	0.610597	0.331652	-0.268853	0.861814	0.89351	-0.16208	0.900737	0.780577	-0.178151	0.819646	0.675993	-0.19564	0.474192	0.159686	-0.283733	0.910163	1.46415	-0.0973614	0.904601	1.37433	-0.094604	0.836495	1.37937	-0.0532933
155	1.41667	0.841598	1.57786	-0.343615	0.961694	1.48419	-0.31981	0.907782	1.53379	-0.519928	0.914083	1.07494	-0.466388	0.882461	0.0969366	-0.355431	0.93947	1.18679	-0.509419	0.79876	1.21641	-0.623036	0.925821	1.12125	-0.537854	0.708597	1.24621	-0.645781	0.665813	1.24707	-0.569357	1.04722	0.055138	-0.429894	0.733872	1.10597	-0.367279	1.03394	0.418942	-0.392775	1.00256	0.33109	-0.442273	1.00513	0.221616	-0.368879	0.890649	0.866109	-0.512441	0.983618	0.76355	-0.496023	0.949908	0.640996	-0.467955	1.11668	0.0809066	-0.340427	0.864572	1.45823	-0.593862	0.857177	1.38636	-0.593488	0.760722	1.39872	-0.581999	0.928786	1.55267	-0.181714	0.925891	1.06587	-0.205331	0.420722	0.391838	-0.269034	1.02204	1.23886	-0.180627	0.906488	1.23049	-0.0429194	1.0333	1.17987	-0.135817	0.806381	1.24034	-0.00172889	0.757082	1.23171	-0.0720953	0.429328	0.219282	-0.192713	0.739003	1.09772	-0.284031	0.755422	0.415262	-0.272731	0.68753	0.406617	-0.202392	0.621558	0.330293	-0.268721	0.864727	0.886002	-0.163676	0.905867	0.775026	-0.178222	0.828143	0.667767	-0.196423	0.477939	0.165833	-0.2809	0.90618	1.45574	-0.0977065	0.898606	1.36591	-0.095768	0.830626	1.3724	-0.054471
156	1.425	0.840356	1.57235	-0.345835	0.961463	1.47731	-0.320111	0.907643	1.52588	-0.52216	0.911527	1.07139	-0.464396	0.866511	0.0977315	-0.355291	0.946441	1.17599	-0.509454	0.807051	1.20328	-0.625513	0.934108	1.11035	-0.537822	0.716803	1.23215	-0.649302	0.672704	1.23243	-0.573556	1.03092	0.0554649	-0.42941	0.731031	1.10038	-0.366288	1.03151	0.418069	-0.392415	0.99838	0.331409	-0.442379	0.995365	0.221827	-0.368851	0.889783	0.864713	-0.513786	0.983269	0.762732	-0.497976	0.952502	0.64025	-0.470373	1.10082	0.0800397	-0.339344	0.867452	1.44705	-0.596005	0.861134	1.37528	-0.594498	0.764372	1.38557	-0.585992	0.924698	1.54647	-0.181194	0.925388	1.05882	-0.205181	0.430871	0.398369	-0.267547	1.01683	1.22134	-0.178499	0.898312	1.21965	-0.0427247	1.02537	1.16336	-0.131945	0.797742	1.23395	-0.00380131	0.74978	1.22598	-0.0748605	0.437732	0.226489	-0.189724	0.736994	1.09064	-0.283867	0.766809	0.413496	-0.273738	0.699141	0.405621	-0.202594	0.63351	0.329019	-0.268836	0.867376	0.879046	-0.164837	0.910756	0.770433	-0.178345	0.836602	0.660353	-0.197529	0.483975	0.171315	-0.278252	0.902097	1.4471	-0.0980204	0.892338	1.35732	-0.0970766	0.824604	1.36511	-0.0555587
